:FULLY-SPECIFIED
:FORCE-ALL-JOINTS-BE-3DOF
:DEGREES
1529
root -5.10907 15.4075 20.2785 562.67 -9.47502 549.865
lfemur -44.1038 15.317 -20.244
ltibia 91.6143 0 0
lfoot -13.3118 19.2218 0
ltoes -24.3062 0 0
rfemur -43.3423 -0.484962 15.7293
rtibia 68.7452 0 0
rfoot -21.7216 -5.70678 0
rtoes -27.9493 0 0
lowerback 18.286 0.940863 3.31271
upperback -1.15617 2.67813 3.76336
thorax -11.5157 1.28105 1.49683
lowerneck -3.64857 7.96285 3.69964
upperneck 3.14868 11.2199 -10.2906
head 2.60279 5.51837 -3.58399
lclavicle 5.88729e-15 7.07695e-14 0
lhumerus 24.7874 -61.7221 67.3377
lradius 112.707 0 0
lwrist 10.6901 0 0
lhand -26.1379 49.2985 0
lfingers 7.12502 0 0
lthumb 0.415955 -227.896 0
rclavicle 5.88729e-15 7.07695e-14 0
rhumerus -51.0113 46.7607 -89.166
rradius 115.052 0 0
rwrist -51.0567 0 0
rhand 11.6905 -28.6069 0
rfingers 7.12502 0 0
rthumb 36.7552 -55.0133 0
1530
root -5.16524 15.4237 20.3302 563.798 -11.8989 549.904
lfemur -43.8713 15.4176 -20.3715
ltibia 90.7247 0 0
lfoot -13.3977 19.0119 0
ltoes -24.7729 0 0
rfemur -43.5266 -0.900938 15.7771
rtibia 69.6653 0 0
rfoot -21.5623 -6.02764 0
rtoes -27.3629 0 0
lowerback 18.2568 0.866097 3.04194
upperback -1.15097 2.51209 3.75925
thorax -11.4802 1.21475 1.69137
lowerneck -3.69589 7.73663 3.52577
upperneck 3.13227 10.914 -10.1079
head 2.57285 5.36491 -3.50231
lclavicle 4.7718e-15 7.01424e-14 0
lhumerus 24.6847 -60.7393 67.5008
lradius 110.812 0 0
lwrist 10.1454 0 0
lhand -26.204 48.7579 0
lfingers 7.12502 0 0
lthumb 0.353006 -218.476 0
rclavicle 4.7718e-15 7.01424e-14 0
rhumerus -51.9612 46.7025 -89.9202
rradius 115.974 0 0
rwrist -51.6529 0 0
rhand 11.9573 -28.4167 0
rfingers 7.12502 0 0
rthumb 37.0106 -54.7867 0
1531
root -5.22168 15.4392 20.3757 564.754 -14.3968 549.742
lfemur -43.5637 15.5026 -20.4886
ltibia 89.7081 0 0
lfoot -13.4875 18.8015 0
ltoes -25.2748 0 0
rfemur -43.7491 -1.35753 15.8216
rtibia 70.6418 0 0
rfoot -21.3814 -6.36921 0
rtoes -26.7141 0 0
lowerback 18.2249 0.788832 2.74671
upperback -1.14568 2.33613 3.74974
thorax -11.4427 1.14476 1.8966
lowerneck -3.74951 7.4852 3.33135
upperneck 3.11667 10.5742 -9.90189
head 2.54158 5.19451 -3.41055
lclavicle 3.56133e-15 6.941e-14 0
lhumerus 24.4994 -59.661 67.7056
lradius 108.798 0 0
lwrist 9.61163 0 0
lhand -26.2723 48.1797 0
lfingers 7.12502 0 0
lthumb 0.288043 -208.629 0
rclavicle 3.56133e-15 6.941e-14 0
rhumerus -52.8473 46.5946 -90.6416
rradius 116.907 0 0
rwrist -52.2142 0 0
rhand 12.2007 -28.2117 0
rfingers 7.12502 0 0
rthumb 37.2435 -54.5475 0
1532
root -5.27855 15.4539 20.4153 565.555 -16.9599 549.388
lfemur -43.1855 15.5718 -20.5954
ltibia 88.5742 0 0
lfoot -13.5809 18.5915 0
ltoes -25.8088 0 0
rfemur -44.0066 -1.85117 15.8626
rtibia 71.6682 0 0
rfoot -21.1802 -6.72868 0
rtoes -26.0077 0 0
lowerback 18.1907 0.70953 2.429
upperback -1.14026 2.15138 3.73507
thorax -11.4033 1.0715 2.11135
lowerneck -3.80874 7.21022 3.11773
upperneck 3.10193 10.2026 -9.67394
head 2.50917 5.00826 -3.30935
lclavicle 2.26422e-15 6.85802e-14 0
lhumerus 24.2345 -58.4947 67.9498
lradius 106.677 0 0
lwrist 9.09077 0 0
lhand -26.341 47.5682 0
lfingers 7.12502 0 0
lthumb 0.222662 -198.399 0
rclavicle 2.26422e-15 6.85802e-14 0
rhumerus -53.6685 46.4388 -91.3298
rradius 117.844 0 0
rwrist -52.7389 0 0
rhand 12.421 -27.994 0
rfingers 7.12502 0 0
rthumb 37.4541 -54.2974 0
1533
root -5.336 15.4677 20.4494 566.215 -19.5791 548.849
lfemur -42.7409 15.6253 -20.6922
ltibia 87.3327 0 0
lfoot -13.6779 18.3828 0
ltoes -26.3721 0 0
rfemur -44.296 -2.37831 15.8999
rtibia 72.7378 0 0
rfoot -20.9598 -7.10325 0
rtoes -25.2488 0 0
lowerback 18.1542 0.62865 2.09076
upperback -1.13469 1.95898 3.71549
thorax -11.3622 0.995448 2.33449
lowerneck -3.87288 6.91335 2.88626
upperneck 3.08809 9.80143 -9.42548
head 2.47583 4.80728 -3.19937
lclavicle 8.88789e-16 6.76607e-14 0
lhumerus 23.8927 -57.248 68.2312
lradius 104.463 0 0
lwrist 8.5849 0 0
lhand -26.4085 46.9275 0
lfingers 7.12502 0 0
lthumb 0.15846 -187.827 0
rclavicle 8.88789e-16 6.76607e-14 0
rhumerus -54.4241 46.237 -91.9846
rradius 118.779 0 0
rwrist -53.2252 0 0
rhand 12.6184 -27.7651 0
rfingers 7.12502 0 0
rthumb 37.6428 -54.0384 0
1534
root -5.39418 15.4808 20.4782 566.748 -22.2454 548.135
lfemur -42.2342 15.6629 -20.7793
ltibia 85.9933 0 0
lfoot -13.7784 18.1761 0
ltoes -26.9615 0 0
rfemur -44.6142 -2.93538 15.933
rtibia 73.8439 0 0
rfoot -20.7216 -7.49009 0
rtoes -24.4422 0 0
lowerback 18.1156 0.546653 1.73396
upperback -1.12892 1.76007 3.69123
thorax -11.3195 0.917034 2.56484
lowerneck -3.94121 6.59623 2.63829
upperneck 3.0752 9.37296 -9.15794
head 2.44175 4.59267 -3.08127
lclavicle -5.5663e-16 6.66592e-14 0
lhumerus 23.4768 -55.9283 68.5476
lradius 102.169 0 0
lwrist 8.09609 0 0
lhand -26.4732 46.2619 0
lfingers 7.12502 0 0
lthumb 0.0970324 -176.955 0
rclavicle -5.5663e-16 6.66592e-14 0
rhumerus -55.1132 45.9912 -92.6057
rradius 119.705 0 0
rwrist -53.6714 0 0
rhand 12.7932 -27.5271 0
rfingers 7.12502 0 0
rthumb 37.8097 -53.7724 0
1535
root -5.45326 15.493 20.5021 567.17 -24.9499 547.255
lfemur -41.6699 15.6844 -20.857
ltibia 84.5657 0 0
lfoot -13.8822 17.9724 0
ltoes -27.5741 0 0
rfemur -44.958 -3.51883 15.9619
rtibia 74.9799 0 0
rfoot -20.4668 -7.88641 0
rtoes -23.593 0 0
lowerback 18.0751 0.464001 1.36058
upperback -1.12293 1.55579 3.66255
thorax -11.2753 0.836714 2.80125
lowerneck -4.01303 6.26052 2.37516
upperneck 3.06331 8.91935 -8.87273
head 2.40714 4.36552 -2.95571
lclavicle -2.06371e-15 6.55834e-14 0
lhumerus 22.9896 -54.5434 68.8967
lradius 99.8082 0 0
lwrist 7.62639 0 0
lhand -26.5334 45.5755 0
lfingers 7.12502 0 0
lthumb 0.0399767 -165.827 0
rclavicle -2.06371e-15 6.55834e-14 0
rhumerus -55.7348 45.7031 -93.1927
rradius 120.617 0 0
rwrist -54.0755 0 0
rhand 12.9456 -27.2816 0
rfingers 7.12502 0 0
rthumb 37.9551 -53.501 0
